<svg xmlns="http://www.w3.org/2000/svg" width="390" height="844" viewBox="0 0 390 844">
<defs>
<linearGradient id="g" x1="0" y1="0" x2="1" y2="1"><stop stop-color="#32e6c5"/><stop offset="1" stop-color="#7b61ff"/></linearGradient>
<radialGradient id="r1" cx="20%" cy="0%" r="80%"><stop stop-color="#7b61ff" stop-opacity=".32"/><stop offset="1" stop-color="#070a12" stop-opacity="0"/></radialGradient>
<filter id="blur"><feGaussianBlur stdDeviation="18"/></filter>
</defs>
<rect width="390" height="844" fill="#070a12"/>
<circle cx="75" cy="40" r="180" fill="url(#r1)"/>
<circle cx="335" cy="85" r="135" fill="#32e6c5" opacity=".10" filter="url(#blur)"/>
<rect x="16" y="24" width="358" height="796" rx="34" fill="#0d1320" opacity=".86" stroke="rgba(255,255,255,.12)"/>
<text x="32" y="64" fill="#edf4ff" font-family="Inter,Arial,sans-serif" font-size="24" font-weight="800">Not Authorized</text>
<rect x="316" y="38" width="34" height="34" rx="12" fill="url(#g)" opacity=".9"/><text x="327" y="61" fill="#06121a" font-size="18" font-weight="900">↻</text>

<rect x="28" y="92" width="334" height="62" rx="20" fill="#121827" opacity=".78" stroke="rgba(255,255,255,.14)" stroke-opacity=".42"/>
<rect x="42" y="106" width="6" height="34" rx="3" fill="url(#g)"/>
<text x="58" y="120" fill="#edf4ff" font-family="Inter,Arial,sans-serif" font-size="14" font-weight="700">Sentinel Mini App</text>
<rect x="28" y="166" width="334" height="62" rx="20" fill="#121827" opacity=".78" stroke="rgba(255,255,255,.14)" stroke-opacity=".42"/>
<text x="58" y="194" fill="#edf4ff" font-family="Inter,Arial,sans-serif" font-size="14" font-weight="700">🔒 Authorization required</text>
<rect x="28" y="240" width="334" height="62" rx="20" fill="#121827" opacity=".78" stroke="rgba(255,255,255,.14)" stroke-opacity=".42"/>
<text x="58" y="268" fill="#edf4ff" font-family="Inter,Arial,sans-serif" font-size="14" font-weight="700">Open this app from the Telegram bot</text>
<rect x="28" y="314" width="334" height="62" rx="20" fill="#121827" opacity=".78" stroke="rgba(255,255,255,.14)" stroke-opacity=".42"/>
<rect x="42" y="328" width="6" height="34" rx="3" fill="url(#g)"/>
<text x="58" y="342" fill="#edf4ff" font-family="Inter,Arial,sans-serif" font-size="14" font-weight="700">Button: Open Telegram Bot</text>
<rect x="28" y="388" width="334" height="78" rx="20" fill="#121827" opacity=".78" stroke="rgba(255,255,255,.14)" stroke-opacity=".42"/>
<text x="58" y="416" fill="#edf4ff" font-family="Inter,Arial,sans-serif" font-size="14" font-weight="700">Troubleshooting: refresh Telegram, request </text>
<text x="58" y="437" fill="#8e9bb3" font-family="Inter,Arial,sans-serif" font-size="12" font-weight="600">access</text>
<rect x="28" y="478" width="334" height="62" rx="20" fill="#121827" opacity=".78" stroke="rgba(255,255,255,.14)" stroke-opacity=".42"/>
<text x="58" y="506" fill="#edf4ff" font-family="Inter,Arial,sans-serif" font-size="14" font-weight="700">Branding: Sentinel control center</text>
<rect x="28" y="760" width="112" height="28" rx="14" fill="#32e6c5" opacity="0.18"/><text x="40" y="779" fill="#32e6c5" font-size="12" font-weight="700">Dark mode</text>
<rect x="150" y="760" width="104" height="28" rx="14" fill="#7b61ff" opacity="0.18"/><text x="162" y="779" fill="#7b61ff" font-size="12" font-weight="700">Glass UI</text>
<rect x="264" y="760" width="98" height="28" rx="14" fill="#36e08a" opacity="0.18"/><text x="276" y="779" fill="#36e08a" font-size="12" font-weight="700">Mini App</text>
<rect x="125" y="807" width="140" height="5" rx="3" fill="rgba(255,255,255,.22)"/>
</svg>